# AST/ASF file generated using VICON BodyLanguage
# -----------------------------------------------
:version 1.10
:name VICON
:units
  mass 1.0
  length 0.45
  angle deg
:documentation
   .ast/.asf automatically generated from VICON data using
   VICON BodyBuilder and BodyLanguage model FoxedUp or BRILLIANT.MOD
:root
   order TX TY TZ RX RY RZ
   axis XYZ
   position 0 0 0  
   orientation 0 0 0 
:bonedata
  begin
     id 1 
     name lhipjoint
     direction 0.662698 -0.695252 0.27831 
     length 2.53073 
     axis 0 0 0  XYZ
  end
  begin
     id 2 
     name lfemur
     direction 0.34202 -0.939693 0  
     length 7.16147  
     axis 0 0 20  XYZ
    dof rx ry rz
    limits (-160.0 20.0)
           (-70.0 70.0)
           (-60.0 70.0)
  end
  begin
     id 3 
     name ltibia
     direction 0.34202 -0.939693 0   
     length 7.63967   
     axis 0 0 20   XYZ
    dof rx
    limits (-10.0 170.0)
  end
  begin
     id 4 
     name lfoot
     direction 0.0938457 -0.257721 0.961651   
     length 1.89793   
     axis -90 7.62852e-016 20   XYZ
    dof rx rz
    limits (-45.0 90.0)
           (-70.0 20.0)
  end
  begin
     id 5 
     name ltoes
     direction -0.00116841 -0.0030592 0.999995   
     length 0.955649   
     axis -90 7.62852e-016 20   XYZ
    dof rx
    limits (-90.0 20.0)
  end
  begin
     id 6 
     name rhipjoint
     direction -0.649445 -0.705948 0.282592   
     length 2.49238  
     axis 0 0 0  XYZ 
  end
  begin
     id 7 
     name rfemur
     direction -0.34202 -0.939693 0   
     length 6.90728   
     axis 0 0 -20   XYZ
    dof rx ry rz
    limits (-160.0 20.0)
           (-70.0 70.0)
           (-70.0 60.0)
  end
  begin
     id 8 
     name rtibia
     direction -0.34202 -0.939693 0   
     length 7.72868   
     axis 0 0 -20   XYZ
    dof rx
    limits (-10.0 170.0)
 end
 begin
     id 9 
     name rfoot
     direction -0.0920068 -0.252865 0.963117   
     length 1.97476  
     axis -90 -7.62852e-016 -20   XYZ
    dof rx rz
    limits (-45.0 90.0)
           (-20.0 70.0)
  end
  begin
     id 10 
     name rtoes
     direction 0.000391322 0.00230649 0.999997   
     length 0.992641   
     axis -90 -7.62852e-016 -20   XYZ
    dof rx
    limits (-90.0 20.0)
  end
  begin
     id 11 
     name lowerback
     direction -0.00875327 0.998321 -0.0572635   
     length 2.20024   
     axis 0 0 0   XYZ
    dof rx ry rz
    limits (-20.0 45.0)
           (-30.0 30.0)
           (-30.0 30.0)
  end
  begin
     id 12 
     name upperback
     direction 0.00753931 0.999972 -0.000360425   
     length 2.20538   
     axis 0 0 0   XYZ
    dof rx ry rz
    limits (-20.0 45.0)
           (-30.0 30.0)
           (-30.0 30.0)
  end
  begin
     id 13 
     name thorax
     direction 0.0117767 0.999601 0.0256663   
     length 2.21508   
     axis 0 0 0   XYZ
    dof rx ry rz
    limits (-20.0 45.0)
           (-30.0 30.0)
           (-30.0 30.0)
  end
  begin
     id 14 
     name lowerneck
     direction 0.060228 0.994909 0.0807986   
     length 1.7607   
     axis 0 0 0   XYZ
    dof rx ry rz
    limits (-20.0 45.0)
           (-30.0 30.0)
           (-30.0 30.0)
  end
  begin
     id 15 
     name upperneck
     direction -0.0563647 0.959594 -0.275685   
     length 1.75612   
     axis 0 0 0   XYZ
    dof rx ry rz
    limits (-20.0 45.0)
           (-30.0 30.0)
           (-30.0 30.0)
  end
  begin
     id 16
     name head
     direction -0.0161544 0.99458 -0.102714  
     length 1.79288  
     axis 0 0 0   XYZ
    dof rx ry rz
    limits (-20.0 45.0)
           (-30.0 30.0)
           (-30.0 30.0)
  end
  begin
     id 17 
     name lclavicle
     direction 0.93913 0.332189 -0.087669  
     length 3.52087  
     axis 0 0 0   XYZ
    dof ry rz
    limits (-20.0 10.0)
           (0.0 20.0)
  end
  begin
     id 18 
     name lhumerus
     direction 1 -4.48974e-011 -2.70836e-027   
     length 5.35289   
     axis -180 -30 -90   XYZ
    dof rx ry rz
    limits (-60.0 90.0)
           (-90.0 90.0)
           (-90.0 90.0)
  end
  begin
     id 19
     name lradius
     direction 1 -4.48961e-011 -9.76021e-027   
     length 3.27727   
     axis -180 -30 -90   XYZ
    dof rx
    limits (-10.0 170.0)
  end
  begin
     id 20
     name lwrist
     direction 1 -4.49103e-011 -2.23668e-026   
     length 1.63864   
     axis 1.44924e-014 90 90   XYZ
    dof ry
    limits (-180.0 0.0)
 end
  begin
     id 21 
     name lhand
     direction 1 3.0697e-005 0.000161777   
     length 0.54443   
     axis 2.85318e-014 90 90   XYZ
    dof rx rz
    limits (-90.0 90.0)
           (-45.0 45.0)
  end
  begin
     id 22 
     name lfingers
     direction 1 -4.49027e-011 -8.9447e-026   
     length 0.438912   
     axis 5.70628e-014 90 90   XYZ
    dof rx
    limits (0.0 90.0)
  end
  begin
     id 23
     name lthumb
     direction 0.707058 2.6516e-005 0.707156   
     length 0.630274   
     axis -90 45 -3.53137e-014   XYZ
    dof rx rz
    limits (-45.0 45.0)
           (-45.0 45.0)
  end
  begin
     id 24 
     name rclavicle
     direction -0.95274 0.284984 -0.105215   
     length 3.43401  
     axis 0 0 0   XYZ 
    dof ry rz
    limits (-10.0 20.0)
           (-20.0 0.0)
  end
  begin
     id 25 
     name rhumerus
     direction -0.999999 -0.000575019 -0.00106829  
     length 5.52077   
     axis -180 30 90   XYZ
    dof rx ry rz
    limits (-90.0 60.0)
           (-90.0 90.0)
           (-90.0 90.0)
  end
  begin
     id 26 
     name rradius
     direction -1 -4.4879e-011 -6.35415e-027   
     length 3.32364   
     axis -180 30 90   XYZ
    dof rx
    limits (-10.0 170.0)
  end
  begin
     id 27 
     name rwrist
     direction -1 -4.49048e-011 -9.98542e-027   
     length 1.66182   
     axis 6.32482e-015 -90 -90   XYZ
    dof ry
    limits (-180.0 0.0)
  end
  begin
     id 28
     name rhand
     direction -1 -4.48978e-011 -1.99771e-026   
     length 0.732235   
     axis 1.27479e-014 -90 -90   XYZ
    dof rx rz
    limits (-90.0 90.0)
           (-45.0 45.0)
  end
  begin
     id 29
     name rfingers
     direction -1 -4.49144e-011 -3.99245e-026   
     length 0.590347   
     axis 2.5496e-014 -90 -90   XYZ
    dof rx
    limits (0.0 90.0)
  end
  begin
     id 30
     name rthumb
     direction -0.707107 -6.35121e-011 0.707107   
     length 0.847624   
     axis -90 -45 -2.82974e-014   XYZ
    dof rx rz
    limits (-45.0 45.0)
           (-45.0 45.0)
  end
:hierarchy
  begin
    root lhipjoint rhipjoint lowerback
    lhipjoint lfemur
    lfemur ltibia
    ltibia lfoot
    lfoot ltoes
    rhipjoint rfemur
    rfemur rtibia
    rtibia rfoot
    rfoot rtoes
    lowerback upperback
    upperback thorax
    thorax lowerneck lclavicle rclavicle
    lowerneck upperneck
    upperneck head
    lclavicle lhumerus
    lhumerus lradius
    lradius lwrist
    lwrist lhand lthumb
    lhand lfingers
    rclavicle rhumerus
    rhumerus rradius
    rradius rwrist
    rwrist rhand rthumb
    rhand rfingers
  end

#!OML:ASF G:\Work\Work\Patient Classification 1\Elijah\terrain1\Elijah.ASF
:FULLY-SPECIFIED
:DEGREES
133
root 16.2677 23.7001 -1.40063 2.29692 -1.15073 3.58505
lowerback 7.90824 0.26998 -8.41757
upperback 0.608409 -0.532984 -3.64108
thorax -3.77295 -0.154986 0.985957
lowerneck -18.5948 9.44095 10.239
upperneck 18.4216 13.6924 -14.6867
head 10.8093 5.46562 -4.78046
rclavicle 1.19271e-015 2.38542e-014
rhumerus -37.3303 -0.156123 -86.7647
rradius 30.3047
rwrist -1.17117
rhand -14.0239 22.2798
rfingers 7.12502
rthumb 12.1061 -7.34998
lclavicle 1.19271e-015 2.38542e-014
lhumerus -17.9077 -5.44779 80.1644
lradius 47.9534
lwrist 7.01448
lhand -17.262 29.7351
lfingers 7.12502
lthumb 8.98251 59.5239
rfemur -50.4645 -15.6811 26.0252
rtibia 71.8664
rfoot -4.63788 -4.30044
rtoes -20.0698
lfemur -16.5046 -1.85673 -26.9628
ltibia 45.0881
lfoot -15.4496 -11.3096
ltoes -8.12598
134
root 16.2609 23.689 -1.29769 2.16469 -0.665312 3.3334
lowerback 7.98201 0.135108 -8.07967
upperback 0.746961 -0.67379 -3.51223
thorax -3.65927 -0.235315 0.949698
lowerneck -19.6771 9.81486 9.54969
upperneck 19.4913 14.2872 -13.844
head 11.3581 5.68809 -4.2322
rclavicle 1.21259e-014 3.65764e-014
rhumerus -37.3549 -0.0987901 -86.4961
rradius 29.6448
rwrist -0.0878942
rhand -14.6625 23.6124
rfingers 7.12502
rthumb 11.4903 -6.05271
lclavicle 1.21259e-014 3.65764e-014
lhumerus -17.6708 -5.45184 80.2386
lradius 48.4625
lwrist 7.03111
lhand -17.1969 28.016
lfingers 7.12502
lthumb 9.04539 57.8021
rfemur -50.3394 -16.1753 26.6154
rtibia 69.6764
rfoot -4.75422 -4.29466
rtoes -20.3725
lfemur -16.1786 -1.69236 -26.6396
ltibia 45.5358
lfoot -15.5378 -11.7536
ltoes -7.39013
135
root 16.2538 23.665 -1.19648 2.09539 -0.215981 3.48411
lowerback 8.12388 -0.0164373 -8.50138
upperback 0.359847 -0.950343 -3.30025
thorax -4.11515 -0.339045 1.43456
lowerneck -18.8801 9.6759 9.52732
upperneck 19.8643 14.2346 -13.9143
head 11.3424 5.68114 -4.29724
rclavicle -5.86415e-015 -7.95139e-016
rhumerus -38.3789 0.545608 -86.1797
rradius 29.3314
rwrist 0.317413
rhand -14.6985 24.3603
rfingers 7.12502
rthumb 11.4556 -5.30675
lclavicle -5.86415e-015 -7.95139e-016
lhumerus -18.88 -5.29086 80.4933
lradius 49.3626
lwrist 6.91434
lhand -16.7501 27.4463
lfingers 7.12502
lthumb 9.47648 57.2132
rfemur -50.3679 -16.6631 26.7744
rtibia 67.4988
rfoot -4.62075 -4.03058
rtoes -20.2874
lfemur -15.9335 -1.57158 -26.776
ltibia 46.058
lfoot -15.5894 -12.0386
ltoes -6.62213
136
root 16.2455 23.6202 -1.0949 2.09055 0.0793749 3.65425
lowerback 7.27404 0.111171 -8.34891
upperback 1.13281 -0.615669 -3.53926
thorax -2.85979 -0.237139 1.0633
lowerneck -19.0872 9.43129 9.05992
upperneck 18.735 13.8412 -13.9452
head 10.8799 5.49517 -4.28031
rclavicle 7.95139e-015 -1.11319e-014
rhumerus -37.1751 -0.51547 -85.791
rradius 28.692
rwrist 0.765813
rhand -14.2705 24.2211
rfingers 7.12502
rthumb 11.8683 -5.42258
lclavicle 7.95139e-015 -1.11319e-014
lhumerus -17.7753 -6.1159 80.4163
lradius 50.1114
lwrist 6.93904
lhand -16.4427 27.4617
lfingers 7.12502
lthumb 9.77306 57.2149
rfemur -50.5102 -17.0041 26.9686
rtibia 65.3279
rfoot -4.0226 -3.81905
rtoes -21.4986
lfemur -15.8228 -1.29575 -26.9276
ltibia 46.6469
lfoot -15.5801 -12.3177
ltoes -5.86526
137
root 16.2381 23.5869 -0.985979 1.9701 0.452518 3.67401
lowerback 8.22587 0.00136522 -8.61394
upperback 0.377047 -0.94779 -3.31497
thorax -4.15335 -0.334501 1.48183
lowerneck -17.9804 9.74614 9.80331
upperneck 19.5619 14.3384 -14.1332
head 11.1145 5.77932 -4.4261
rclavicle -1.09332e-015 1.43125e-014
rhumerus -38.5695 -0.0387833 -85.3739
rradius 28.3021
rwrist 1.38074
rhand -13.9912 23.8981
rfingers 7.12502
rthumb 12.1376 -5.72978
lclavicle -1.09332e-015 1.43125e-014
lhumerus -19.5666 -5.88464 80.7097
lradius 51.086
lwrist 6.76055
lhand -16.1792 26.6401
lfingers 7.12502
lthumb 10.0273 56.3812
rfemur -50.2439 -17.4915 27.2139
rtibia 63.0028
rfoot -3.34646 -3.62109
rtoes -22.0518
lfemur -15.5528 -1.06845 -26.8978
ltibia 47.2572
lfoot -15.6593 -12.804
ltoes -4.48486
138
root 16.2268 23.558 -0.879959 1.82141 0.96726 3.61282
lowerback 7.63627 0.00239848 -8.38826
upperback 0.842674 -0.82138 -3.36369
thorax -3.34705 -0.31448 1.28935
lowerneck -18.7149 9.45852 9.43706
upperneck 19.9283 13.8852 -13.5982
head 11.2489 5.55992 -4.23827
rclavicle -1.78906e-015 -7.95139e-015
rhumerus -38.3787 -0.432411 -85.0481
rradius 28.1952
rwrist 2.01619
rhand -13.8831 23.6754
rfingers 7.12502
rthumb 12.2418 -5.94628
lclavicle -1.78906e-015 -7.95139e-015
lhumerus -19.306 -6.26577 80.7933
lradius 51.8733
lwrist 6.6388
lhand -16.0322 25.8207
lfingers 7.12502
lthumb 10.1691 55.5549
rfemur -49.8048 -18.0309 27.4848
rtibia 60.5491
rfoot -2.65538 -3.48091
rtoes -21.5434
lfemur -15.3314 -0.996725 -26.7452
ltibia 47.9179
lfoot -15.652 -13.3565
ltoes -2.49505
139
root 16.2099 23.5249 -0.777055 1.71783 1.3126 3.41703
lowerback 7.45721 0.206483 -7.74038
upperback 1.60392 -0.426529 -3.60502
thorax -2.49029 -0.169175 0.641888
lowerneck -21.2706 9.29321 8.93008
upperneck 20.6404 13.5139 -12.8569
head 11.8509 5.29909 -3.88907
rclavicle -1.98785e-015 -6.36111e-015
rhumerus -37.3701 -1.60908 -84.7957
rradius 28.0118
rwrist 2.47952
rhand -13.9327 23.8528
rfingers 7.12502
rthumb 12.194 -5.77172
lclavicle -1.98785e-015 -6.36111e-015
lhumerus -18.1802 -7.22173 80.6367
lradius 52.7861
lwrist 6.8653
lhand -16.3722 24.2051
lfingers 7.12502
lthumb 9.84103 53.9551
rfemur -49.3469 -18.1782 27.8787
rtibia 57.9739
rfoot -1.66444 -3.50643
rtoes -21.6732
lfemur -15.2469 -0.772709 -26.4073
ltibia 48.5977
lfoot -15.6032 -13.6345
ltoes -1.5185
140
root 16.1942 23.4876 -0.664831 1.5944 1.6591 3.32123
lowerback 7.63071 0.14661 -8.01542
upperback 0.971172 -0.587671 -3.36211
thorax -3.23223 -0.209897 1.06114
lowerneck -18.4936 9.17319 9.87183
upperneck 19.9998 13.4277 -13.7861
head 11.2201 5.37609 -4.4729
rclavicle 9.93923e-016 3.18055e-015
rhumerus -38.9602 -1.31461 -84.3326
rradius 27.5885
rwrist 2.97108
rhand -13.8772 23.9499
rfingers 7.12502
rthumb 12.2475 -5.67148
lclavicle 9.93923e-016 3.18055e-015
lhumerus -20.1539 -7.22645 80.9092
lradius 53.9913
lwrist 7.15077
lhand -15.9174 25.6515
lfingers 7.12502
lthumb 10.2798 55.3803
rfemur -48.7737 -18.3127 28.0783
rtibia 55.4222
rfoot -0.473196 -3.52045
rtoes -22.7092
lfemur -15.1114 -0.447493 -26.1717
ltibia 49.3123
lfoot -15.7662 -13.7371
ltoes -2.66273
141
root 16.1795 23.4516 -0.550998 1.43967 2.06734 3.28565
lowerback 7.37589 0.132973 -8.09164
upperback 1.17225 -0.562199 -3.19986
thorax -2.87836 -0.211247 1.2692
lowerneck -18.0381 8.91864 9.8668
upperneck 19.1217 13.1713 -14.5366
head 10.8423 5.22734 -4.79147
rclavicle -4.77083e-015 -7.55382e-014
rhumerus -38.9805 -1.52611 -83.7546
rradius 27.0193
rwrist 3.49992
rhand -13.447 23.4849
rfingers 7.12502
rthumb 12.6623 -6.11121
lclavicle -4.77083e-015 -7.55382e-014
lhumerus -20.2154 -7.35917 81.0552
lradius 54.71
lwrist 7.3834
lhand -15.6949 26.1149
lfingers 7.12502
lthumb 10.4945 55.8329
rfemur -48.0455 -18.5314 28.1127
rtibia 52.9079
rfoot 0.862825 -3.53898
rtoes -23.5628
lfemur -14.9281 -0.171299 -26.0125
ltibia 50.0295
lfoot -16.0036 -13.9728
ltoes -3.76378
142
root 16.1656 23.4074 -0.440271 1.25606 2.26661 3.30363
lowerback 7.30579 0.191677 -8.18314
upperback 1.2634 -0.473757 -3.10928
thorax -2.74927 -0.172429 1.40548
lowerneck -18.7391 8.89276 9.12986
upperneck 20.2291 13.1631 -13.4215
head 11.2295 5.22302 -4.26311
rclavicle 1.12313e-014 2.38542e-014
rhumerus -39.1922 -1.66941 -83.2855
rradius 26.5201
rwrist 3.92151
rhand -13.4244 23.5488
rfingers 7.12502
rthumb 12.6841 -6.04602
lclavicle 1.12313e-014 2.38542e-014
lhumerus -20.4031 -7.63686 81.1308
lradius 55.2356
lwrist 7.5548
lhand -15.4783 26.0712
lfingers 7.12502
lthumb 10.7034 55.7785
rfemur -47.2367 -18.4735 27.9941
rtibia 50.4593
rfoot 2.25647 -3.75503
rtoes -23.6626
lfemur -14.6913 0.109883 -25.9257
ltibia 50.745
lfoot -16.1941 -14.3116
ltoes -4.78249
143
root 16.1524 23.3662 -0.320409 1.01104 2.48745 3.33217
lowerback 7.405 0.231479 -8.22276
upperback 1.25414 -0.434481 -3.06762
thorax -2.81707 -0.149924 1.46715
lowerneck -19.1569 8.99481 8.75155
upperneck 20.9506 13.3325 -12.8111
head 11.5189 5.29736 -3.94456
rclavicle 7.25564e-015 8.0309e-014
rhumerus -39.4844 -1.88223 -82.8213
rradius 25.9104
rwrist 4.42531
rhand -13.6182 23.8268
rfingers 7.12502
rthumb 12.4972 -5.77951
lclavicle 7.25564e-015 8.0309e-014
lhumerus -20.8139 -7.966 81.16
lradius 55.7807
lwrist 7.80041
lhand -15.0243 25.878
lfingers 7.12502
lthumb 11.1413 55.5622
rfemur -46.234 -18.4305 27.7762
rtibia 48.0606
rfoot 3.48989 -4.03845
rtoes -23.8017
lfemur -14.2837 0.315014 -25.8199
ltibia 51.4147
lfoot -16.2165 -14.8303
ltoes -6.65119
